<svg width="10" height="18" viewBox="0 0 10 18" fill="none" xmlns="http://www.w3.org/2000/svg">
<g clip-path="url(#clip0_79_1561)">
<path d="M0.293255 1.54182C-0.175953 1.08505 -0.0879774 0.428443 0.469208 0.114413C0.791788 -0.0568744 1.17302 -0.0283253 1.46628 0.200059C1.55425 0.285702 1.64223 0.371346 1.7302 0.456992C4.31085 2.94068 6.86217 5.42437 9.41349 7.9366C9.53079 8.05079 9.64809 8.16499 9.7654 8.30773C9.79472 8.33628 9.82405 8.36482 9.85337 8.39337C9.97068 8.50756 10 8.62176 10 8.73595C10 8.85014 9.97068 8.99288 9.8827 9.07853C9.8827 9.07853 9.8827 9.07853 9.8827 9.10707C9.85337 9.13562 9.82405 9.16417 9.79472 9.19272C9.67742 9.30691 9.56012 9.44965 9.44282 9.56385C6.86217 12.0761 4.28153 14.5598 1.73021 17.072C1.64223 17.1291 1.58358 17.2147 1.4956 17.2718C1.11437 17.5859 0.586511 17.5859 0.26393 17.2433C-0.029325 16.9578 -0.087975 16.501 0.146629 16.1585C2.37537 13.9603 4.63343 11.7906 6.86217 9.62094C6.97947 9.50675 7.09677 9.36401 7.21408 9.24982C7.2434 9.22127 7.27273 9.19272 7.30205 9.16417C7.3607 9.07853 7.41936 8.96433 7.41936 8.82159C7.41936 8.67885 7.39003 8.56466 7.30205 8.47902C7.30205 8.47902 7.30205 8.47902 7.30205 8.45047C7.27273 8.42192 7.2434 8.39337 7.21408 8.36482C7.09677 8.25063 6.97947 8.10789 6.86217 7.9937L6.71554 7.85096L6.74487 7.85096C6.62757 7.73676 6.56892 7.65112 6.48094 7.56548C4.42815 5.56711 2.37537 3.54019 0.293255 1.54182Z" fill="#BC0063"/>
</g>
<defs>
<clipPath id="clip0_79_1561">
<rect width="10" height="17.5" fill="white" transform="translate(10 17.5) rotate(180)"/>
</clipPath>
</defs>
</svg>
