<svg width="14" height="10" viewBox="0 0 14 10" fill="none" xmlns="http://www.w3.org/2000/svg">
<g clip-path="url(#clip0_37_64)">
<path d="M13.9855 1.68973C13.9855 1.60863 13.9855 1.52752 13.971 1.44641C13.8257 0.581268 13.0996 0 12.1556 0C10.4419 0 8.71369 0 7 0C5.27178 0 3.54357 0 1.81535 0C0.798755 0 0 0.743483 0 1.68973C0 3.79852 0 5.90731 0 8.01609C0 8.96234 0.798755 9.69231 1.80083 9.69231C5.25726 9.69231 8.72822 9.69231 12.1846 9.69231C13.2012 9.69231 13.9855 8.94883 13.9855 8.00258C14 5.90731 14 3.79852 13.9855 1.68973ZM12.5332 1.94657L7 5.08272L1.51037 1.93305C1.40871 1.87898 1.37967 1.7438 1.43776 1.64918C1.49585 1.55455 1.64108 1.52752 1.74274 1.58159L7 4.59607L12.3154 1.58159C12.417 1.52752 12.5477 1.55455 12.6203 1.64918C12.6784 1.75732 12.6349 1.87898 12.5332 1.94657Z" fill="black"/>
</g>
<defs>
<clipPath id="clip0_37_64">
<rect width="14" height="9.69231" fill="white"/>
</clipPath>
</defs>
</svg>
