<svg width="22" height="22" viewBox="0 0 22 22" fill="none" xmlns="http://www.w3.org/2000/svg">
<rect x="1.25" y="1.25" width="19.5" height="19.5" rx="5.75" stroke="#A1A1A1" stroke-width="2.5"/>
<path d="M10.001 7.3L10.276 12.668H11.211L11.486 7.3H10.001ZM9.968 14.461C9.968 14.6737 10.0413 14.8533 10.188 15C10.342 15.1393 10.529 15.209 10.749 15.209C10.969 15.209 11.1523 15.1393 11.299 15C11.4457 14.8533 11.519 14.6737 11.519 14.461C11.519 14.2483 11.4457 14.0723 11.299 13.933C11.1523 13.7937 10.969 13.724 10.749 13.724C10.529 13.724 10.342 13.7937 10.188 13.933C10.0413 14.0723 9.968 14.2483 9.968 14.461Z" fill="#A1A1A1"/>
</svg>
