<svg width="78" height="67" viewBox="0 0 78 67" fill="none" xmlns="http://www.w3.org/2000/svg">
<circle cx="37.6067" cy="39.3354" r="27.6645" fill="url(#paint0_linear_58_156)"/>
<circle cx="5.18708" cy="8.64509" r="4.32258" fill="#01DB3E"/>
<circle cx="74.1321" cy="7.13232" r="3.24194" fill="#01DB3E"/>
<circle cx="40.2001" cy="2.16129" r="2.16129" fill="#01DB3E"/>
<circle cx="62.245" cy="61.8129" r="1.29677" fill="#01DB3E"/>
<circle cx="1.72903" cy="39.3355" r="1.72903" fill="#01DB3E"/>
<circle cx="68.0805" cy="45.171" r="1.5129" fill="#01DB3E"/>
<circle cx="16.2096" cy="62.8935" r="1.08065" fill="#01DB3E"/>
<path d="M35.0129 38.7592L37.3904 41.1366L45.3151 33.2119" stroke="white" stroke-width="2" stroke-linecap="round" stroke-linejoin="round"/>
<path d="M44.5228 39.5517V45.099C44.5228 45.5194 44.3558 45.9225 44.0586 46.2197C43.7614 46.517 43.3582 46.6839 42.9379 46.6839H31.8432C31.4229 46.6839 31.0198 46.517 30.7225 46.2197C30.4253 45.9225 30.2583 45.5194 30.2583 45.099V34.0044C30.2583 33.584 30.4253 33.1809 30.7225 32.8837C31.0198 32.5864 31.4229 32.4194 31.8432 32.4194H40.5605" stroke="white" stroke-width="2" stroke-linecap="round" stroke-linejoin="round"/>
<defs>
<linearGradient id="paint0_linear_58_156" x1="-89.9095" y1="-138.755" x2="70.026" y2="82.9935" gradientUnits="userSpaceOnUse">
<stop offset="0.555569" stop-color="#00BC56" stop-opacity="0"/>
<stop offset="0.859375" stop-color="#01DB3E"/>
</linearGradient>
</defs>
</svg>
