<svg width="23" height="25" viewBox="0 0 23 25" fill="none" xmlns="http://www.w3.org/2000/svg">
<path d="M17.9168 7.91667C17.9168 6.14856 17.2144 4.45286 15.9642 3.20262C14.7139 1.95238 13.0182 1.25 11.2501 1.25C9.48201 1.25 7.78632 1.95238 6.53608 3.20262C5.28583 4.45286 4.58346 6.14856 4.58346 7.91667C4.58346 15.6944 1.25012 17.9167 1.25012 17.9167H21.2501C21.2501 17.9167 17.9168 15.6944 17.9168 7.91667Z" stroke="#A1A1A1" stroke-width="2.5" stroke-linecap="round" stroke-linejoin="round"/>
<path d="M13.1723 22.3613C12.977 22.6981 12.6966 22.9776 12.3592 23.1719C12.0219 23.3662 11.6394 23.4685 11.2501 23.4685C10.8608 23.4685 10.4783 23.3662 10.141 23.1719C9.80361 22.9776 9.52323 22.6981 9.32788 22.3613" stroke="#A1A1A1" stroke-width="2.5" stroke-linecap="round" stroke-linejoin="round"/>
</svg>
