<svg width="43" height="43" viewBox="0 0 43 43" fill="none" xmlns="http://www.w3.org/2000/svg">
<circle cx="21.0851" cy="21.0851" r="20.5851" stroke="#DD0505"/>
<circle cx="21.0851" cy="21.085" r="17.5709" fill="url(#paint0_linear_60_625)"/>
<path d="M17.1557 12.5442H20.5877V29.3442H17.1557V12.5442ZM19.2437 15.4482V12.5442H22.5797C23.9077 12.5442 25.0357 12.7602 25.9637 13.1922C26.9077 13.6242 27.6277 14.2402 28.1237 15.0402C28.6197 15.8402 28.8677 16.7922 28.8677 17.8962C28.8677 18.9842 28.6197 19.9362 28.1237 20.7522C27.6277 21.5522 26.9077 22.1682 25.9637 22.6002C25.0357 23.0322 23.9077 23.2482 22.5797 23.2482H19.2437V20.3442H22.5797C23.4917 20.3442 24.2117 20.1362 24.7397 19.7202C25.2677 19.3042 25.5317 18.6962 25.5317 17.8962C25.5317 17.0802 25.2677 16.4722 24.7397 16.0722C24.2117 15.6562 23.4917 15.4482 22.5797 15.4482H19.2437Z" fill="white"/>
<defs>
<linearGradient id="paint0_linear_60_625" x1="-42.7249" y1="-78.098" x2="35.4192" y2="41.6615" gradientUnits="userSpaceOnUse">
<stop stop-color="#DF321D" stop-opacity="0"/>
<stop offset="1" stop-color="#DF321D"/>
</linearGradient>
</defs>
</svg>
