<svg width="11" height="14" viewBox="0 0 11 14" fill="none" xmlns="http://www.w3.org/2000/svg">
<g clip-path="url(#clip0_37_66)">
<path d="M9.76962 6.36884C9.91653 6.36884 10.0451 6.34972 10.1736 6.36884C10.6511 6.42622 10.9816 6.80873 10.9816 7.306C10.9816 8.03278 10.9816 8.77868 10.9816 9.50545C10.9816 10.6721 10.9816 11.8579 10.9816 13.0246C10.9816 13.4645 10.7245 13.847 10.3205 13.9617C10.2287 13.9809 10.1369 14 10.0451 14C8.22705 14 6.40901 14 4.59098 14C3.3606 14 2.13022 14 0.899833 14C0.477462 14 0.110184 13.7322 0 13.3115C0.0183639 13.235 0 13.1393 0 13.0437C0 11.1311 0 9.21857 0 7.306C0 6.77048 0.404007 6.34972 0.918197 6.34972C0.991653 6.34972 1.08347 6.34972 1.15693 6.34972C1.21202 6.34972 1.23038 6.33059 1.23038 6.27321C1.23038 5.68032 1.23038 5.10655 1.23038 4.51365C1.21202 2.65846 2.27713 0.994525 3.92988 0.306C4.51753 0.057366 5.1419 -0.0191367 5.78464 -1.10136e-05C7.76795 0.114743 9.10851 1.68305 9.53088 2.94534C9.71452 3.48086 9.76962 4.03551 9.76962 4.59015C9.76962 5.1448 9.76962 5.68032 9.76962 6.23496C9.76962 6.27321 9.76962 6.31146 9.76962 6.36884ZM7.93322 6.34972C7.93322 6.33059 7.93322 6.31146 7.93322 6.29234C7.93322 5.71857 7.93322 5.1448 7.93322 4.57103C7.93322 4.32239 7.93322 4.07376 7.85977 3.84425C7.4374 2.12294 5.52755 1.37704 4.13189 2.33332C3.41569 2.83059 3.04841 3.53824 3.04841 4.43715C3.04841 5.04917 3.04841 5.66119 3.04841 6.29234C3.04841 6.31146 3.04841 6.33059 3.04841 6.36884C4.6828 6.34972 6.29883 6.34972 7.93322 6.34972Z" fill="#BC0063"/>
</g>
<defs>
<clipPath id="clip0_37_66">
<rect width="11" height="14" fill="white"/>
</clipPath>
</defs>
</svg>
