<svg width="35" height="41" viewBox="0 0 35 41" fill="none" xmlns="http://www.w3.org/2000/svg">
<path d="M0.683578 36.1275C0.196346 36.0314 -0.0575637 35.6746 0.0110605 35.1531C0.120859 34.3158 0.244383 33.4786 0.367907 32.6414C0.724752 30.0955 1.0816 27.5564 1.43844 25.0104C1.82274 22.3203 2.20017 19.6303 2.57761 16.9402C2.93445 14.4217 3.28444 11.8963 3.63442 9.3778C4.01185 6.68773 4.38929 3.99766 4.77358 1.30759C4.79417 1.14975 4.80789 0.991917 4.83534 0.834081C4.93828 0.223325 5.18533 0.0105902 5.80295 0.0105902C8.76065 0.0105902 11.7252 0.0105902 14.6829 0.0105902C16.4671 0.0105902 18.2514 -0.023722 20.0356 0.0311774C25.1344 0.175288 29.6567 3.86041 30.8851 8.81508C31.2214 10.1738 31.2831 11.5463 31.2008 12.9325C31.1596 13.1315 31.1184 13.3306 31.091 13.5296C30.5969 16.6108 29.0871 19.0813 26.6373 20.989C24.5236 22.6291 22.1012 23.3977 19.4386 23.4183C17.0848 23.4389 14.731 23.4252 12.3771 23.4252C12.2399 23.4252 12.1095 23.4252 11.938 23.4252C11.3409 27.6936 10.7439 31.9277 10.14 36.203C9.57042 36.203 9.03515 36.203 8.49988 36.203V36.1893C8.38322 36.1481 8.27342 36.0726 8.15676 36.0726C5.78236 36.0658 3.4011 36.0658 1.0267 36.0726C0.9169 36.052 0.800239 36.1001 0.683578 36.1275Z" fill="#253B80"/>
<path d="M8.50688 36.1894C9.04214 36.1894 9.57741 36.1894 10.147 36.1894C10.7509 31.9141 11.3411 27.6732 11.9449 23.4116C12.1165 23.4116 12.2538 23.4116 12.3841 23.4116C14.738 23.4116 17.0918 23.4253 19.4456 23.4047C22.1082 23.3841 24.5306 22.6155 26.6443 20.9754C29.0941 19.0745 30.6039 16.5972 31.098 13.516C31.1323 13.317 31.1735 13.118 31.2078 12.9189C33.191 14.4424 34.4194 16.4325 34.8517 18.8824C35.785 24.1665 32.2165 29.0388 26.9668 30.0544C26.308 30.1779 25.6286 30.2191 24.9561 30.226C22.9797 30.2466 21.0033 30.2328 19.027 30.2328C18.9034 30.2328 18.7799 30.2328 18.6221 30.2328C18.4986 31.0701 18.375 31.8935 18.2584 32.7102C17.9496 34.8581 17.6408 37.006 17.3388 39.1471C17.3045 39.3942 17.2633 39.6412 17.229 39.8951C17.1604 40.3824 16.8653 40.6637 16.3849 40.6637C13.8253 40.6706 11.2656 40.6706 8.70589 40.6637C8.12944 40.6637 7.77946 40.2245 7.8824 39.6618C8.08827 38.5021 8.29414 37.3423 8.50688 36.1894Z" fill="#179AD6"/>
<path d="M0.683594 36.1275C0.800255 36.1001 0.916916 36.052 1.03358 36.052C3.40798 36.0452 5.78924 36.0452 8.16363 36.052C8.2803 36.052 8.39009 36.1275 8.50676 36.1687C6.05687 36.1687 3.60699 36.1618 1.1571 36.1618C0.999265 36.1618 0.841429 36.1412 0.683594 36.1275Z" fill="#092270"/>
</svg>
