<svg width="14" height="15" viewBox="0 0 14 15" fill="none" xmlns="http://www.w3.org/2000/svg">
<path d="M0 13.3597L1.36364 10.7757C2.68775 11.749 4.42194 12.2826 6.1413 12.2826C7.97925 12.2826 9.14032 11.6403 9.14032 10.5879C9.14032 8.27075 1.9664 9.51087 1.9664 4.90119C1.9664 1.92194 4.57016 0 8.58202 0C10.5237 0 12.3221 0.434783 13.587 1.24012L12.3271 3.80435C11.2302 3.0583 9.82708 2.68775 8.39921 2.68775C6.45751 2.68775 5.32115 3.43379 5.32115 4.4664C5.30138 6.84289 12.4951 5.60277 12.4951 10.0494C12.4951 13.0484 9.84684 14.9704 5.81522 14.9704C3.45356 14.9753 1.22036 14.2737 0 13.3597Z" fill="white"/>
</svg>
