<svg width="19" height="27" viewBox="0 0 19 27" fill="none" xmlns="http://www.w3.org/2000/svg">
<path d="M2.72363 1C6.93564 1 11.194 1.06036 15.4346 1C16.3474 1.00047 16.6987 1.22188 16.8613 1.41016C17.0293 1.6048 17.1743 1.96478 17.208 2.65039L17.2158 2.96484C17.1856 6.53758 17.1855 10.1097 17.1855 13.6768C17.1855 17.2479 17.1855 20.8144 17.1553 24.3799V24.3877C17.1553 24.6522 17.0713 25.0635 16.9102 25.4395C16.8322 25.6214 16.7485 25.765 16.6729 25.8633C16.6387 25.9077 16.6118 25.9333 16.5957 25.9482C16.5831 25.9479 16.5666 25.9494 16.5459 25.9473C16.4385 25.9364 16.2836 25.9004 16.0879 25.8301C15.699 25.6903 15.2756 25.4613 14.9648 25.2549C13.1906 24.0116 11.6264 22.6178 9.70508 21.0684L9.06543 20.5518L8.43457 21.0801C6.54208 22.6673 4.82639 24.1465 2.99219 25.4482H2.99121L2.98242 25.4551C2.73482 25.6352 2.39238 25.8131 2.06641 25.916C1.90578 25.9667 1.77233 25.9914 1.67383 25.998C1.63343 26.0007 1.60579 25.9994 1.58887 25.998C1.57522 25.9867 1.55104 25.9668 1.51953 25.9316C1.44732 25.8509 1.36403 25.7314 1.28223 25.5791C1.11794 25.2732 1.02194 24.951 1 24.7529V2.48145C1 1.72342 1.20186 1.44083 1.36133 1.30957C1.56331 1.14342 1.96031 1 2.72363 1Z" stroke="#CACACA" stroke-width="2"/>
<line x1="4.5" y1="4.5" x2="13.5" y2="4.5" stroke="#CACACA" stroke-linecap="round"/>
</svg>
