<svg width="20" height="17" viewBox="0 0 20 17" fill="none" xmlns="http://www.w3.org/2000/svg">
<path d="M6.8307 2.77005C4.80825 2.77005 2.79366 2.77005 0.771208 2.77005C0.676775 2.77005 0.590211 2.77005 0.495777 2.77005C0.196737 2.75432 0 2.58906 0 2.28215C0 1.96737 0.196737 1.80998 0.503646 1.79424C0.661036 1.78637 0.818425 1.78637 0.975815 1.78637C4.9499 1.78637 8.92398 1.78637 12.8902 1.79424C13.1971 1.79424 13.3702 1.74702 13.4883 1.40864C13.8109 0.542994 14.6608 0 15.5816 0C16.518 0 17.3601 0.542994 17.6984 1.42437C17.8086 1.70768 17.9345 1.81785 18.2336 1.78637C18.509 1.76276 18.7844 1.77063 19.0599 1.79424C19.3432 1.81785 19.532 1.97524 19.532 2.27428C19.532 2.58906 19.3432 2.75432 19.0363 2.77005C18.7215 2.78579 18.4067 2.75432 18.0919 2.78579C17.9739 2.80153 17.8086 2.90384 17.7693 3.00614C17.3522 3.98982 16.581 4.55643 15.613 4.56429C14.6451 4.58003 13.8345 4.00556 13.4411 2.9904C13.3466 2.75432 13.205 2.76219 13.0161 2.76219C10.9543 2.77005 8.89251 2.77005 6.8307 2.77005ZM15.5658 3.57274C16.2898 3.58061 16.8722 3.01401 16.8722 2.29002C16.88 1.57389 16.2977 0.983684 15.5816 0.983684C14.889 0.983684 14.3067 1.55029 14.291 2.25067C14.2831 2.96679 14.8497 3.56487 15.5658 3.57274Z" fill="#BC0063"/>
<path d="M13.7325 13.6299C15.3458 13.6299 16.959 13.6299 18.5722 13.6299C18.6903 13.6299 18.8083 13.6299 18.9264 13.6299C19.2569 13.6221 19.5008 13.7401 19.5244 14.1021C19.5481 14.4169 19.3277 14.6136 18.9264 14.6136C17.3525 14.6215 15.7786 14.6294 14.2047 14.6136C13.8663 14.6136 13.6932 14.6844 13.5436 15.0307C13.158 15.9357 12.4262 16.3921 11.4425 16.4C10.5218 16.4 9.6876 15.8491 9.37282 14.9835C9.25478 14.6687 9.09739 14.6215 8.79835 14.6215C6.16208 14.6294 3.52581 14.6294 0.889532 14.6294C0.732143 14.6294 0.574753 14.6372 0.417364 14.6136C0.149802 14.5664 -0.00758767 14.4011 0.000281801 14.1257C0.00815127 13.8503 0.165541 13.6929 0.433103 13.6457C0.551145 13.6299 0.669187 13.6378 0.787229 13.6378C3.48646 13.6378 6.18569 13.6378 8.89279 13.6378C9.09739 13.6378 9.23904 13.6221 9.33348 13.3702C9.69547 12.4102 10.5296 11.8357 11.4976 11.8357C12.4577 11.8436 13.2682 12.4338 13.6381 13.4017C13.6617 13.4725 13.6932 13.5434 13.7325 13.6299ZM11.4582 12.8351C10.7421 12.843 10.1598 13.4332 10.1676 14.1493C10.1834 14.8418 10.7657 15.4163 11.4582 15.4242C12.1665 15.432 12.7567 14.8418 12.7567 14.1257C12.7567 13.4017 12.1744 12.8272 11.4582 12.8351Z" fill="#BC0063"/>
<path d="M6.41362 8.68784C6.16967 9.51413 5.67389 10.0965 4.86333 10.3719C3.72226 10.7575 2.48675 10.1673 2.04606 9.01048C1.95163 8.75866 1.84146 8.65636 1.56603 8.67997C1.2119 8.70358 0.857773 8.69571 0.503646 8.67997C0.196737 8.6721 0 8.50684 0 8.19206C0 7.87728 0.188867 7.71202 0.495777 7.70415C0.873512 7.69628 1.25912 7.68841 1.63685 7.70415C1.83359 7.71202 1.92802 7.64907 2.00672 7.45233C2.38445 6.47651 3.18714 5.90991 4.16295 5.90991C5.13877 5.90991 5.93358 6.46865 6.31132 7.4602C6.40575 7.71989 6.57101 7.70415 6.76775 7.70415C10.7576 7.70415 14.7395 7.70415 18.7293 7.70415C19.3117 7.70415 19.5399 7.85367 19.532 8.21567C19.5163 8.56192 19.3038 8.68784 18.7372 8.68784C14.7631 8.68784 10.789 8.68784 6.81496 8.68784C6.67331 8.68784 6.5474 8.68784 6.41362 8.68784ZM4.15508 6.90934C3.43896 6.90934 2.85662 7.49955 2.86449 8.21567C2.87236 8.91605 3.44683 9.48265 4.14721 9.49052C4.8712 9.49839 5.44568 8.93179 5.45355 8.2078C5.45355 7.47594 4.87907 6.90934 4.15508 6.90934Z" fill="#BC0063"/>
</svg>
