<svg width="17" height="15" viewBox="0 0 17 15" fill="none" xmlns="http://www.w3.org/2000/svg">
<g clip-path="url(#clip0_30_36)">
<path d="M8.61838 3C8.83148 3 9.04457 3 9.23398 3C9.25766 3 9.28134 3 9.30501 3C9.96797 3.02688 10.6072 3.16129 11.2228 3.34946C12.4304 3.72581 13.5195 4.39785 14.5139 5.25806C15.4136 6.03763 16.2187 6.95161 16.9526 7.94624C16.9763 7.97312 16.9763 7.97312 17 8C17 8 17 8 17 8.02688L16.9763 8.05376C16.4791 8.75269 15.9109 9.39785 15.2953 9.96237C14.4429 10.7957 13.4958 11.4946 12.454 12.0323C11.4359 12.543 10.3705 12.8656 9.25766 12.9731C9.16295 12.9731 9.04457 13 8.94986 13C8.73677 13 8.54735 13 8.33426 13C8.31059 13 8.28691 13 8.26323 13C7.74234 12.9731 7.24513 12.8925 6.74791 12.7849C5.65877 12.5161 4.64067 12.0323 3.66992 11.3871C2.53343 10.6344 1.539 9.72043 0.591922 8.69892C0.402507 8.48387 0.213092 8.26882 0 8.05376C0 8.05376 0 8.05376 0 8.02688C0.0236769 8.02688 0.0236769 8 0.0236769 8C0.37883 7.62366 0.710306 7.22043 1.06546 6.87097C2.20195 5.74194 3.45682 4.77419 4.83008 4.07527C5.9429 3.51075 7.07939 3.13441 8.31058 3.05376C8.40529 3.02688 8.52368 3 8.61838 3ZM8.54735 12.1667C8.73677 12.1398 8.87883 12.1398 9.02089 12.1398C9.84958 12.0323 10.5836 11.6559 11.1755 11.0376C12.383 9.77419 12.7145 7.81183 11.9331 6.17204C11.2939 4.82796 10.2758 4.07527 8.92618 3.91398C7.76602 3.77957 6.74791 4.1828 5.91922 5.09677C4.75905 6.33333 4.45125 8.2957 5.20891 9.9086C5.9429 11.3602 7.10306 12.086 8.54735 12.1667ZM6.72423 9.07527C7.29248 10.3118 8.68941 10.7688 9.7312 10.0161C10.5836 9.39785 10.9387 8.24194 10.5599 7.19355C10.1574 6.0914 9.09192 5.47312 8.05014 5.7957C7.12674 6.06452 6.48746 7.00538 6.48746 8.05376C6.51114 8.40323 6.58217 8.75269 6.72423 9.07527Z" fill="#A9A9A9"/>
</g>
<line x1="15" y1="1.41421" x2="2.41421" y2="14" stroke="#A9A9A9" stroke-width="2" stroke-linecap="round"/>
<defs>
<clipPath id="clip0_30_36">
<rect width="17" height="10" fill="white" transform="translate(0 3)"/>
</clipPath>
</defs>
</svg>
