<svg width="254" height="249" viewBox="0 0 254 249" fill="none" xmlns="http://www.w3.org/2000/svg">
<path d="M154.211 6.6751C155.342 1.89736 160.144 -1.08914 164.831 0.373377C185.876 6.94025 204.902 18.8911 219.987 35.1072C237.095 53.4984 248.366 76.5497 252.373 101.346C256.381 126.143 252.945 151.571 242.501 174.415C232.057 197.259 215.073 216.492 193.698 229.684C172.322 242.876 147.515 249.432 122.413 248.525C97.3112 247.618 73.0421 239.287 52.6747 224.587C32.3073 209.887 16.7564 189.477 7.98847 165.939C0.257523 145.185 -1.89378 122.82 1.6725 101.064C2.46675 96.2193 7.28956 93.2656 12.0673 94.3968C16.845 95.528 19.763 100.316 19.024 105.17C16.2346 123.491 18.147 142.275 24.6501 159.733C32.1905 179.976 45.5643 197.528 63.0802 210.17C80.5962 222.812 101.468 229.976 123.055 230.757C144.643 231.537 165.977 225.898 184.36 214.553C202.743 203.209 217.349 186.667 226.331 167.022C235.313 147.376 238.267 125.508 234.821 104.183C231.375 82.8578 221.682 63.0337 206.969 47.2173C194.28 33.5767 178.348 23.4454 160.721 17.7237C156.051 16.2079 153.08 11.4528 154.211 6.6751Z" fill="#BC0063"/>
</svg>
