<svg width="78" height="67" viewBox="0 0 78 67" fill="none" xmlns="http://www.w3.org/2000/svg">
<circle cx="37.6067" cy="39.3354" r="27.6645" fill="url(#paint0_linear_58_160)"/>
<circle cx="5.18708" cy="8.64509" r="4.32258" fill="#2192B6"/>
<circle cx="74.1321" cy="7.13232" r="3.24194" fill="#2192B6"/>
<circle cx="40.2001" cy="2.16129" r="2.16129" fill="#2192B6"/>
<circle cx="62.245" cy="61.8129" r="1.29677" fill="#2192B6"/>
<circle cx="1.72903" cy="39.3355" r="1.72903" fill="#2192B6"/>
<circle cx="68.0805" cy="45.1711" r="1.5129" fill="#2192B6"/>
<circle cx="16.2096" cy="62.8936" r="1.08065" fill="#2192B6"/>
<g clip-path="url(#clip0_58_160)">
<path d="M47 45V46C47 47.1 46.1 48 45 48H31C29.89 48 29 47.1 29 46V32C29 30.9 29.89 30 31 30H45C46.1 30 47 30.9 47 32V33H38C36.89 33 36 33.9 36 35V43C36 44.1 36.89 45 38 45H47ZM38 43H48V35H38V43ZM42 40.5C41.17 40.5 40.5 39.83 40.5 39C40.5 38.17 41.17 37.5 42 37.5C42.83 37.5 43.5 38.17 43.5 39C43.5 39.83 42.83 40.5 42 40.5Z" fill="white"/>
</g>
<defs>
<linearGradient id="paint0_linear_58_160" x1="-44.5" y1="-40.5" x2="70.026" y2="82.9935" gradientUnits="userSpaceOnUse">
<stop stop-color="#2192B6" stop-opacity="0"/>
<stop offset="0.859375" stop-color="#2192B6"/>
</linearGradient>
<clipPath id="clip0_58_160">
<rect width="24" height="24" fill="white" transform="translate(26 27)"/>
</clipPath>
</defs>
</svg>
